<?xml version="1.0" encoding="utf-8"?>
<!-- Generator: Adobe Illustrator 27.1.1, SVG Export Plug-In . SVG Version: 6.00 Build 0)  -->
<svg version="1.1" id="Layer_1" xmlns="http://www.w3.org/2000/svg" xmlns:xlink="http://www.w3.org/1999/xlink" x="0px" y="0px"
	 viewBox="0 0 24 24" style="enable-background:new 0 0 24 24;" xml:space="preserve">
<style type="text/css">
	.st0{fill:none;stroke:#FFFFFF;stroke-width:2;}
	.st1{fill:#FFFFFF;}
</style>
<circle class="st0" cx="12" cy="12" r="9"/>
<path class="st1" d="M10.7,17.1l0.3,0.1c0.4,0.2,0.7,0.6,0.7,1.1c0,0.6,1,1.9,1.7,1.9c2.1,0,2.9-0.1,4.5-1.5
	c0.3-0.3,0.8-1.1,0.8-1.5c0-0.7-1.4-1.6-2.2-1.6h-0.1c-0.9,0-1.6-0.6-1.6-1.4v-0.5c0-1.1-0.9-1.9-2.1-1.9H9.7c-0.6,0-1-0.4-1-1
	c0-0.5,0.5-1,1-1h0.8c0.7,0,1.3-0.5,1.3-1.2V8.6c0-0.7,0.8-1.3,1.6-1c0.8,0.2,1.6-0.3,1.6-1V6.3c0-0.6-0.6-2.1-1.2-2.5
	c-0.1-0.1-0.2-0.1-0.4-0.1h-1.9c-0.1,0-0.2,0-0.4,0c-1-0.1-2,0.3-2.8,0.8L6,6C5,6.5,4.5,7.8,4.5,8.8c0,0.8,0.3,1.5,0.9,2.1l3.7,3.4
	c0.4,0.3,0.6,0.8,0.6,1.3v0.1C9.7,16.2,10.1,16.8,10.7,17.1L10.7,17.1z"/>
</svg>
