<?xml version="1.0" encoding="utf-8"?>
<!-- Generator: Adobe Illustrator 27.1.1, SVG Export Plug-In . SVG Version: 6.00 Build 0)  -->
<svg version="1.1" id="Layer_1" xmlns="http://www.w3.org/2000/svg" xmlns:xlink="http://www.w3.org/1999/xlink" x="0px" y="0px"
	 viewBox="0 0 24 24" style="enable-background:new 0 0 24 24;" xml:space="preserve">
<style type="text/css">
	.st0{fill:#F55A5A;}
</style>
<path class="st0" d="M12,3C8.7,3,6,5.7,6,9c0,1.3,0.3,2.7,0.9,3.9L9,17.2c1,2.1,1.5,3.2,2.3,3.5c0.5,0.2,1,0.2,1.5,0
	c0.7-0.3,1.2-1.3,2.3-3.5l2.1-4.4C17.7,11.6,18,10.3,18,9C18,5.7,15.3,3,12,3z M12,11.6c-1.4,0-2.6-1.2-2.6-2.6s1.2-2.6,2.6-2.6
	s2.6,1.2,2.6,2.6S13.4,11.6,12,11.6z"/>
</svg>
